<?xml version="1.0" encoding="UTF-8" standalone="no"?>
<svg
   id="Capa_1"
   version="1.1"
   viewBox="0 0 610 162"
   sodipodi:docname="Logo Lunalimon - sin subtitulo.svg"
   width="610"
   height="162"
   inkscape:version="1.4.2 (f4327f4, 2025-05-13)"
   xmlns:inkscape="http://www.inkscape.org/namespaces/inkscape"
   xmlns:sodipodi="http://sodipodi.sourceforge.net/DTD/sodipodi-0.dtd"
   xmlns="http://www.w3.org/2000/svg"
   xmlns:svg="http://www.w3.org/2000/svg">
  <sodipodi:namedview
     id="namedview31"
     pagecolor="#ffffff"
     bordercolor="#000000"
     borderopacity="0.25"
     inkscape:showpageshadow="2"
     inkscape:pageopacity="0.0"
     inkscape:pagecheckerboard="0"
     inkscape:deskcolor="#d1d1d1"
     inkscape:clip-to-page="true"
     inkscape:zoom="3.2524873"
     inkscape:cx="372.33043"
     inkscape:cy="146.50326"
     inkscape:window-width="2560"
     inkscape:window-height="1494"
     inkscape:window-x="-11"
     inkscape:window-y="-11"
     inkscape:window-maximized="1"
     inkscape:current-layer="g28" />
  <!-- Generator: Adobe Illustrator 29.4.0, SVG Export Plug-In . SVG Version: 2.1.0 Build 152)  -->
  <defs
     id="defs1">
    <style
       id="style1">
      .st0 {
        fill: none;
      }

      .st1 {
        fill: #beb4d2;
      }

      .st2 {
        fill: #878787;
      }

      .st3 {
        fill: #f08264;
      }
    </style>
  </defs>
  <g
     id="g28"
     transform="translate(-70,-70)">
    <g
       id="g11">
      <g
         id="g8">
        <path
           class="st1"
           d="m 182.37,221.06 c -7.7,4.13 -16.18,6.47 -25.24,6.47 -17.61,0 -33.5,-9.67 -51.11,-9.67 -8.46,0 -16.58,3.62 -23.14,8.97 H 69.76 V 95.18 H 81.5 v 117.39 c 7.59,-3.8 15.88,-6.56 24.52,-6.56 17.61,0 33.5,9.5 51.11,9.5 6.56,0 12.9,-1.84 18.64,-4.81 l 6.6,10.37 z"
           id="path1" />
        <path
           class="st1"
           d="m 179.98,150.57 c 0,-27.8 13.14,-41.44 34.88,-41.44 21.74,0 34.88,13.64 34.88,41.44 v 45.07 h -11.73 v -45.07 c 0,-20.72 -8.6,-29.71 -23.15,-29.71 -14.55,0 -23,8.99 -23,29.71 v 45.07 h -11.89 v -10.31 c 0,0 0,-34.75 0,-34.75 z"
           id="path2" />
        <path
           class="st1"
           d="m 343.68,69.76 h 11.73 v 125.88 h -11.73 z"
           id="path3" />
        <path
           class="st1"
           d="m 367.61,109.3 h 11.73 v 86.34 h -11.73 z"
           id="path4" />
        <path
           class="st1"
           d="m 512.08,150.57 v 45.07 h -11.73 v -45.07 c 0,-17.09 -5.67,-29.71 -21.01,-29.71 -15.34,0 -21.64,12.62 -21.64,29.71 v 45.07 h -11.73 v -45.07 c 0,-17.09 -6.14,-29.71 -21.48,-29.71 -15.34,0 -21.18,12.62 -21.18,29.71 v 45.07 h -11.73 v -45.07 c 0,-25.21 9.39,-41.44 32.9,-41.44 11.84,0 21.01,4.84 27.51,13.47 6.17,-8.64 15.34,-13.47 27.34,-13.47 23.34,0 32.74,16.23 32.74,41.44 z"
           id="path5" />
        <path
           class="st1"
           d="m 331.44,139.61 v 53.96 h -11.73 v -9.42 c -6.87,7.66 -15.98,11.49 -27.32,11.49 -8.42,0 -15.98,-2.55 -21.65,-7.18 -5.67,-4.79 -8.76,-11.33 -8.76,-18.52 0,-11.81 6.7,-19.63 19.59,-23.47 10.82,-3.19 24.4,-3.19 36.25,-3.19 h 1.89 v -3.67 c 0,-7.66 -2.58,-20.43 -19.93,-20.43 -12.03,0 -17.87,6.39 -17.87,6.39 l -9.62,-7.18 1.55,-1.28 c 6.7,-5.75 14.78,-9.58 25.95,-9.58 9.62,0 17.7,3.03 23.37,8.62 5.5,5.59 8.29,13.73 8.29,23.47 z m -12.76,15.48 c -1.55,0 -3.09,-0.16 -4.81,-0.16 h -4.81 c -11.86,0 -25.09,0.64 -31.1,6.23 -2.41,2.23 -3.61,5.11 -3.61,8.78 0,9.58 9.45,13.89 18.04,13.89 20.45,0 26.46,-14.05 27.32,-16.6 V 155.1 h -1.03 z"
           id="path6" />
        <path
           class="st1"
           d="m 610.48,150.57 c 0,-27.8 13.14,-41.44 34.88,-41.44 21.74,0 34.88,13.64 34.88,41.44 v 45.07 h -11.73 v -45.07 c 0,-20.72 -8.6,-29.71 -23.15,-29.71 -14.55,0 -23,8.99 -23,29.71 v 45.07 h -11.89 v -45.07 z"
           id="path7" />
        <path
           class="st1"
           d="m 167.74,154.2 c 0,27.8 -13.14,41.44 -34.88,41.44 -21.74,0 -34.88,-13.64 -34.88,-41.44 v -45.07 h 11.73 v 45.07 c 0,20.72 8.6,29.71 23.15,29.71 14.55,0 23,-8.99 23,-29.71 v -45.07 h 11.89 v 45.07 z"
           id="path8" />
      </g>
      <path
         class="st3"
         d="m 561.16,109.01 c -11.38,0 -20.91,4.46 -27.56,12.89 -5.98,7.59 -9.28,18.1 -9.28,29.59 0,21.18 11.53,43.97 36.84,43.97 25.31,0 37.08,-22.8 37.08,-43.97 0,-29.34 -18.62,-42.48 -37.08,-42.48 z m 0,4.07 c 5.16,0 22.01,2.77 22.01,38.41 0,37.8 -18.34,39.72 -22.01,39.72 -16.07,0 -21.78,-21.39 -21.78,-39.72 0,-35.64 16.67,-38.41 21.78,-38.41 z"
         id="path9" />
      <rect
         class="st1"
         x="367.35999"
         y="89.629997"
         width="12.24"
         height="12.24"
         id="rect9" />
      <path
         class="st3"
         d="m 579.47,201.33 h -0.49 c -0.3,0.34 -0.72,0.65 -1.2,0.96 -0.15,0.1 -0.32,0.19 -0.49,0.29 -0.37,0.21 -0.77,0.41 -1.21,0.61 -0.22,0.1 -0.42,0.19 -0.65,0.28 -0.59,0.23 -1.23,0.45 -1.91,0.66 -0.15,0.04 -0.31,0.08 -0.46,0.12 -1.16,0.3 -2.35,0.57 -3.64,0.8 -0.02,0 -0.05,0 -0.07,0.01 -1.34,0.24 -2.79,0.43 -4.35,0.56 -0.48,0.04 -0.97,0.05 -1.46,0.08 -0.74,0.04 -1.48,0.09 -2.24,0.09 0,0 0,0 -0.01,0 v 0 c -0.76,0 -1.5,-0.05 -2.24,-0.09 -0.48,-0.02 -0.96,-0.03 -1.43,-0.07 -1.5,-0.13 -2.87,-0.31 -4.17,-0.54 -0.13,-0.02 -0.26,-0.04 -0.39,-0.06 -1.34,-0.24 -2.6,-0.53 -3.81,-0.84 -0.03,0 -0.06,-0.02 -0.09,-0.03 -0.72,-0.21 -1.38,-0.45 -2.01,-0.69 -0.23,-0.09 -0.43,-0.19 -0.65,-0.28 -0.44,-0.19 -0.85,-0.4 -1.22,-0.61 -0.17,-0.1 -0.34,-0.19 -0.49,-0.29 -0.48,-0.31 -0.9,-0.63 -1.2,-0.96 h -0.49 c 0.05,0.37 0.14,0.72 0.23,1.07 1.68,7.03 8.33,12.26 17.96,12.26 9.63,0 16.28,-5.23 17.96,-12.26 v 0 c 0,0 0,0 0,0 0,0 0,0 0,0 0.08,-0.35 0.18,-0.7 0.23,-1.07 z"
         id="path10" />
      <path
         class="st3"
         d="m 581.01,87.49 c -5.18,4.68 -11.95,8.18 -19.72,8.17 -7.97,-0.09 -14.54,-3.5 -19.72,-8.17 h -0.49 c 2.34,7.95 10.11,15.53 20.21,15.53 9.21,0.04 17.87,-7.58 20.21,-15.53 z"
         id="path11" />
    </g>
  </g>
  <g
     id="g31">
    <path
       class="st0"
       d="m 367.69,0 c 27.8,0 41.44,13.14 41.44,34.88 0,21.74 -13.64,34.88 -41.44,34.88 H 322.62 V 58.03 h 45.07 c 20.72,0 29.71,-8.6 29.71,-23.15 0,-14.55 -8.99,-23 -29.71,-23 H 322.62 V 0 Z"
       id="path28" />
    <path
       class="st0"
       d="m 367.69,231.63 c 27.8,0 41.44,13.14 41.44,34.88 0,21.74 -13.64,34.88 -41.44,34.88 h -45.07 v -11.73 h 45.07 c 20.72,0 29.71,-8.6 29.71,-23.15 0,-14.55 -8.99,-23 -29.71,-23 h -45.07 v -11.89 h 45.07 z"
       id="path29" />
    <path
       class="st0"
       d="m 69.76,163.17 c 0,27.8 -13.14,41.44 -34.88,41.44 C 13.14,204.61 0,190.97 0,163.17 V 118.1 h 11.73 v 45.07 c 0,20.72 8.6,29.71 23.15,29.71 14.55,0 23,-8.99 23,-29.71 V 118.1 h 11.89 v 45.07 z"
       id="path30" />
    <path
       class="st0"
       d="m 750,163.17 c 0,27.8 -13.14,41.44 -34.88,41.44 -21.74,0 -34.88,-13.64 -34.88,-41.44 V 118.1 h 11.73 v 45.07 c 0,20.72 8.6,29.71 23.15,29.71 14.55,0 23,-8.99 23,-29.71 V 118.1 h 11.89 v 45.07 z"
       id="path31" />
  </g>
</svg>
