<?xml version="1.0" encoding="UTF-8"?>
<svg id="Capa_1" xmlns="http://www.w3.org/2000/svg" version="1.1" viewBox="0 0 300 300">
  <!-- Generator: Adobe Illustrator 29.4.0, SVG Export Plug-In . SVG Version: 2.1.0 Build 152)  -->
  <defs>
    <style>
      .st0 {
        fill: #f5f5eb;
      }

      .st1 {
        fill: #f08264;
      }
    </style>
  </defs>
  <circle class="st1" cx="150" cy="150" r="150"/>
  <g>
    <path class="st0" d="M149.81,84.61c-17.69,0-32.5,6.93-42.84,20.03-9.3,11.79-14.42,28.13-14.42,45.99,0,32.92,17.92,68.35,57.26,68.35s57.63-35.43,57.63-68.35c0-45.61-28.95-66.02-57.63-66.02ZM149.81,90.94c8.03,0,34.22,4.3,34.22,59.7,0,58.75-28.5,61.73-34.22,61.73-24.98,0-33.85-33.25-33.85-61.73,0-55.39,25.91-59.7,33.85-59.7Z"/>
    <path class="st0" d="M178.27,228.11h-.76c-.47.52-1.12,1.02-1.87,1.5-.24.15-.5.3-.77.45-.57.33-1.2.64-1.89.94-.33.15-.65.3-1.01.44-.92.36-1.91.71-2.97,1.02-.24.06-.48.13-.72.19-1.8.46-3.65.89-5.66,1.25-.03,0-.07.01-.1.02-2.09.37-4.33.66-6.76.87-.75.06-1.51.08-2.27.12-1.16.06-2.3.14-3.48.14,0,0-.01,0-.02,0h0c-1.18,0-2.33-.08-3.49-.14-.74-.04-1.49-.05-2.23-.11-2.33-.2-4.46-.49-6.48-.83-.2-.03-.41-.06-.61-.1-2.09-.38-4.05-.82-5.91-1.3-.05-.01-.1-.03-.15-.04-1.12-.33-2.15-.69-3.12-1.08-.36-.14-.68-.29-1.01-.44-.69-.3-1.31-.62-1.89-.94-.26-.15-.53-.3-.77-.45-.74-.48-1.4-.98-1.87-1.5h-.76c.08.57.22,1.12.35,1.66,2.62,10.93,12.94,19.06,27.92,19.06s25.3-8.12,27.92-19.06h0s0,0,0,0c0,0,0,0,0,0,.13-.55.27-1.09.35-1.66Z"/>
    <path class="st0" d="M180.66,51.17c-8.05,7.27-18.58,12.71-30.66,12.7-12.39-.14-22.61-5.43-30.66-12.7h-.76c3.63,12.36,15.71,24.14,31.41,24.14,14.32.06,27.78-11.79,31.41-24.14h-.76Z"/>
  </g>
</svg>